<?xml version="1.0" standalone="no"?>
<!DOCTYPE svg PUBLIC "-//W3C//DTD SVG 1.1//EN" "http://www.w3.org/Graphics/SVG/1.1/DTD/svg11.dtd" >
<!--
2013-9-30: Created.
-->
<svg>
<metadata>
Created by iconfont
</metadata>
<defs>

<font id="iconfont" horiz-adv-x="1024" >
  <font-face
    font-family="iconfont"
    font-weight="500"
    font-stretch="normal"
    units-per-em="1024"
    ascent="896"
    descent="-128"
  />
    <missing-glyph />
    
    <glyph glyph-name="dashboard" unicode="&#59068;" d="M219.428571 237.714286q0 30.285714-21.428571 51.714286t-51.714286 21.428571-51.714286-21.428571-21.428571-51.714286 21.428571-51.714286 51.714286-21.428571 51.714286 21.428571 21.428571 51.714286zm109.714286 256q0 30.285714-21.428571 51.714286t-51.714286 21.428571-51.714286-21.428571-21.428571-51.714286 21.428571-51.714286 51.714286-21.428571 51.714286 21.428571 21.428571 51.714286zm244.571429-274.857143l57.714286 218.285714q3.428571 14.857143-4.285714 27.714286t-22 16.857143-27.428571-3.714286-17.142857-22.571429l-57.714286-218.285714q-34.285714-2.857143-61.142857-24.857143t-36-56.285714q-11.428571-44 11.428571-83.428571t66.857143-50.857143 83.428571 11.428571 50.857143 66.857143q9.142857 34.285714-3.428571 66.857143t-41.142857 52zm377.142857 18.857143q0 30.285714-21.428571 51.714286t-51.714286 21.428571-51.714286-21.428571-21.428571-51.714286 21.428571-51.714286 51.714286-21.428571 51.714286 21.428571 21.428571 51.714286zm-365.714286 365.714286q0 30.285714-21.428571 51.714286t-51.714286 21.428571-51.714286-21.428571-21.428571-51.714286 21.428571-51.714286 51.714286-21.428571 51.714286 21.428571 21.428571 51.714286zm256-109.714286q0 30.285714-21.428571 51.714286t-51.714286 21.428571-51.714286-21.428571-21.428571-51.714286 21.428571-51.714286 51.714286-21.428571 51.714286 21.428571 21.428571 51.714286zm182.857143-256q0-149.142857-80.571429-276-10.857143-16.571429-30.857143-16.571429l-801.142857 0q-20 0-30.857143 16.571429-80.571429 126.285714-80.571429 276 0 104 40.571429 198.857143t109.142857 163.428571 163.428571 109.142857 198.857143 40.571429 198.857143-40.571429 163.428571-109.142857 109.142857-163.428571 40.571429-198.857143z"  horiz-adv-x="1024" />

    
    <glyph glyph-name="notice" unicode="&#59049;" d="M560.63 757.35c-13.14 6.18-28.65 4.14-39.81-5.13l-215.19-179.1-171.66 0.69c-9.87 0-19.38-3.9-26.37-10.89-7.050-6.99-11.040-16.5-11.040-26.46l-0.78-299.31c0-9.96 3.9-19.5 10.92-26.52 6.99-7.080 16.53-11.010 26.49-11.010h173.55l214.11-178.44c6.84-5.7 15.39-8.64 23.94-8.64 5.4 0 10.8 1.17 15.87 3.54 13.14 6.15 21.54 19.35 21.54 33.87v673.53c0 14.49-8.4 27.69-21.57 33.87v0zM705.71 570.27c-18.45 8.73-40.38 0.78-49.35-17.58-8.94-18.42-1.2-40.71 17.1-49.92 2.37-1.23 58.41-30.36 58.41-113.31 0-88.62-52.41-117.99-54.15-118.95-18.48-9.24-25.98-31.74-16.74-50.22 6.6-13.14 19.77-20.7 33.54-20.7 5.61 0 11.34 1.26 16.68 3.93 3.9 1.98 95.49 49.38 95.49 185.94 0 131.76-96.87 178.86-100.98 180.81v0zM822.2 680.16c-17.25 11.070-40.14 6.030-51.42-11.19-11.22-17.22-6.3-40.38 10.86-51.72 4.050-2.67 99.9-67.98 99.9-230.55 0-162.93-91.95-228.3-95.61-230.79-17.22-11.49-21.84-34.68-10.38-51.9 7.2-10.8 19.080-16.65 31.17-16.65 7.11 0 14.34 2.070 20.73 6.3 5.25 3.48 128.91 88.26 128.91 293.070 0 205.2-128.67 289.92-134.16 293.43v0zM822.2 680.16z"  horiz-adv-x="1024" />

    
    <glyph glyph-name="tianbao" unicode="&#58893;" d="M236.31644445 142.24497778v17.47626667c0 8.73813333 8.73813333 17.47626667 17.47626667 17.47626666h247.58044444l8.73813333 8.73813334 133.98471112 131.072H253.79271112c-8.73813333 0-17.47626667 8.73813333-17.47626667 17.47626666v17.47626667c0 8.73813333 8.73813333 17.47626667 17.47626667 17.47626667h445.6448l171.84995555 168.93724444V823.81937778c0 17.47626667-14.56355555 32.03982222-32.03982222 32.03982222H341.17404445l-227.19146666-2.91271111c-23.30168889 2.91271111-37.86524445-17.47626667-37.86524445-34.95253334v-859.24977777c0-17.47626667 17.47626667-37.86524445 34.95253333-34.95253333h267.96942222l55.34151112 166.02453333V92.72888889000001c0 5.82542222 5.82542222 29.12711111 5.82542222 34.95253333h-189.32622222c-5.82542222-2.91271111-14.56355555 5.82542222-14.56355556 14.56355556z m0 425.25582222c0 8.73813333 8.73813333 17.47626667 17.47626667 17.47626667h460.20835555c8.73813333 0 17.47626667-8.73813333 17.47626667-17.47626667v-17.47626667c0-8.73813333-8.73813333-17.47626667-17.47626667-17.47626666H253.79271112c-8.73813333 0-17.47626667 8.73813333-17.47626667 17.47626666v17.47626667z m751.47946667-206.80248889L906.24000001 439.34151111c-11.65084445 11.65084445-32.03982222 8.73813333-46.60337778-2.91271111l-43.69066667-43.69066667 122.33386667-119.42115555 43.69066666 43.69066667c14.56355555 11.65084445 14.56355555 32.03982222 5.82542223 43.69066666z m-428.16853333-218.45333333L504.28586667 92.72888889000001c-2.91271111 0-5.82542222-5.82542222-5.82542222-11.65084444v-2.91271112l-49.51608889-148.54826666c-2.91271111-5.82542222 0-8.73813333 2.91271111-11.65084445 2.91271111-2.91271111 8.73813333-2.91271111 11.65084445-2.91271111l151.46097777 46.60337778h2.91271112c5.82542222 0 8.73813333 5.82542222 11.65084444 5.82542222l291.27111111 282.53297778-122.33386667 119.42115556-238.8423111-227.19146667z"  horiz-adv-x="1024" />

    
    <glyph glyph-name="tongzhi" unicode="&#58910;" d="M512 840.4461037c12.86447408 0 25.36485925-1.09226667 37.74388148-3.03407407 1.94180741 4.85451852 3.15543703 10.07312592 3.15543704 15.53445926 0 22.57351111-18.32580741 40.77795555-40.77795555 40.77795556-22.57351111 0-40.77795555-18.32580741-40.77795556-40.77795556 0-5.46133333 1.09226667-10.8013037 3.15543704-15.53445926 12.1362963 1.94180741 24.63668148 3.03407408 37.50115555 3.03407407zM512 38.35828147999996H372.79668148c-1.21362963-7.5245037-2.06317037-15.04900741-2.06317037-22.9376 0-78.03638518 63.2301037-141.26648889 141.26648889-141.26648889 78.03638518 0 141.26648889 63.2301037 141.26648889 141.26648889 0 7.76722963-0.84954075 15.4130963-2.06317037 22.9376H512zM866.50121482 169.30891852000002c-47.93837037 0-64.68645925 37.74388148-64.68645927 93.81357037 0 21.9666963-4.49042963 312.87371852-4.49042963 312.87371852 0 137.98968889-128.64474075 256.92539259-285.32432592 256.92539259s-285.32432592-118.9357037-285.32432592-256.92539259c0 0-4.49042963-290.78565925-4.49042963-312.87371852 0-56.06968889-16.74808889-93.81357037-64.68645927-93.81357037-45.8752 0-69.29825185-20.99579259-69.29825185-59.9533037 0-33.01072592 31.19028148-59.9533037 69.29825185-59.95330371h709.00242964c38.10797037 0 69.29825185 26.94257778 69.29825185 59.95330371 0 38.95751111-23.42305185 59.9533037-69.29825185 59.9533037z"  horiz-adv-x="1024" />

    
    <glyph glyph-name="chakan" unicode="&#59123;" d="M359.0372443 359.10271431c0 8.56688299 0.40750307 17.03712995 1.16196693 25.40841074H104.90772821v50.82613646h264.65590841a277.62615523 277.62615523 0 0 0 19.95718087 50.82613646H104.90772821v50.83079339H422.93724957a281.1702693 281.1702693 0 0 0 54.89534748 50.82147954H104.90772821v50.82613532h508.26136121v-1.16196579a282.88876885 282.88876885 0 0 0 25.40841188 1.16196579c26.34101077 0 51.82742983-3.64890112 75.99004444-10.45886179v92.72096426c0 38.71979634-30.55692345 70.2209627-68.11242496 70.22096384H71.37253717c-37.56597931 0-68.11708189-31.50233145-68.11708188-70.22096384v-672.77974528c0-38.71979634 30.55110258-70.2209627 68.11708188-70.22096384h575.08258361c37.55550151 0 68.11242496 31.50233145 68.11242496 70.22096384v41.88900694c-24.16261575-6.80996181-49.64903367-10.45886293-75.99004444-10.4588618-154.38552405 0-279.54025586 125.15356786-279.540257 279.54840576z m659.15400079-241.59704405L812.09705017 252.84099755c17.06740167 29.48460771 26.83583715 63.62406798 26.83583602 99.98965987 0 111.13079808-91.22251776 201.54063758-203.35577316 201.54063759-112.12743453 0-203.34995229-90.4098395-203.34995228-201.54063759s91.22251776-201.54063758 203.34995228-201.54063758c52.02070301 0 99.52743424 19.46584861 135.52743652 51.4210907L982.39499378 63.96556174c4.23337643-2.78033635 15.67956195 6.94851243 25.56559132 21.73273202 9.88486542 14.7853824 14.45938062 29.02704014 10.23065999 31.8073765z m-382.61413206 81.78474097c-85.41850624 0-154.91760697 68.87969565-154.91760697 153.54024619s69.49910073 153.54024619 154.91760697 153.54024505c85.42898517 0 154.92342784-68.87969565 154.92342784-153.54024505s-69.49444267-153.54024619-154.92342784-153.54024619z"  horiz-adv-x="1024" />

    
    <glyph glyph-name="guanlian" unicode="&#59844;" d="M945.664 704.512l-94.208 87.04c-104.448 96.256-273.408 96.256-377.344 0l-141.312-130.56c-103.936-96.256-103.936-252.416 0-348.672l94.208-87.04 94.208 87.04-94.208 87.04c-52.224 48.128-52.224 125.952 0 174.592l141.312 130.56c52.224 48.128 136.704 48.128 188.416 0l94.208-87.04c52.224-48.128 52.224-125.952 0-174.592l94.208-87.04c104.96 96.256 104.96 252.416 0.512 348.672zM691.2 455.68l-94.208 87.04-94.208-87.04 94.208-87.04c52.224-48.128 52.224-126.464 0-174.592l-141.312-130.56c-52.224-48.128-136.704-48.128-188.416 0l-94.208 87.04c-52.224 48.128-52.224 125.952 0 174.592l-94.208 87.04c-104.448-96.256-104.448-252.416 0-348.672l94.208-87.04c103.936-96.256 272.896-96.256 377.344 0l141.312 130.56c103.936 96.256 103.936 252.416-0.512 348.672z"  horiz-adv-x="1024" />

    
    <glyph glyph-name="sousuo" unicode="&#58886;" d="M448.556 127.207c-176.925 0-320.287 143.464-320.287 320.288s143.464 320.288 320.287 320.288c176.926 0 320.288-143.362 320.288-320.288S625.38 127.207 448.556 127.207m546.639-90.458l-169.66 169.558c44.717 69.788 71.424 152.162 71.424 241.188C896.96 695.129 696.191 896 448.454 896 200.82 896 0.051 695.232 0.051 447.495 0.051 199.86 200.82-1.01 448.556-1.01c89.026 0 171.4 26.707 241.188 71.425l169.66-169.66c37.555-37.555 98.338-37.555 135.893 0 37.452 37.656 37.452 98.44-0.102 135.994"  horiz-adv-x="1024" />

    
    <glyph glyph-name="shujubiao" unicode="&#59047;" d="M212 864h600a120 120 0 0 0 120-120v-720a120 120 0 0 0-120-120H212a120 120 0 0 0-120 120V744a120 120 0 0 0 120 120z m90-240a30 30 0 0 1 0-60h420a30 30 0 0 1 0 60h-420z m0-180a30 30 0 0 1 0-60h420a30 30 0 0 1 0 60h-420z m0-180a30 30 0 0 1 0-60h240a30 30 0 0 1 0 60h-240z"  horiz-adv-x="1024" />

    
    <glyph glyph-name="denglu" unicode="&#58883;" d="M512 564m-267 0a267 267 0 1 1 534 0 267 267 0 1 1-534 0ZM748.9 314.4c-68-44.9-149.3-71.1-236.9-71.1s-168.9 26.2-236.9 71.1C149.7 235.60000000000002 66.3 96 66.3-63.10000000000002h891.4c0 159.1-83.4 298.7-208.8 377.5z"  horiz-adv-x="1024" />

    
    <glyph glyph-name="delete2" unicode="&#59301;" d="M512 275.456l253.3376-253.3376a76.6976 76.6976 0 1 1 108.544 108.544L620.6464 384l253.2352 253.3376a76.6976 76.6976 0 1 1-108.544 108.544L512 492.6464 258.6624 745.8815999999999a76.6976 76.6976 0 1 1-108.544-108.544L403.3536 384 150.1184 130.66240000000005a76.6976 76.6976 0 1 1 108.544-108.544L512 275.35360000000003z"  horiz-adv-x="1024" />

    
    <glyph glyph-name="duihao" unicode="&#59076;" d="M393.728 28.16C373.76 28.16 353.28 35.84 337.92 51.2L23.04 367.616c-30.72 30.72-30.72 80.896 0 112.128 30.72 30.72 80.896 30.72 111.616 0L394.24 219.136 889.344 716.8c30.72 30.72 80.384 30.72 111.616 0 30.72-30.72 30.72-80.896 0-111.616L449.536 51.2c-15.36-15.36-35.328-23.04-55.808-23.04z"  horiz-adv-x="1024" />

    
    <glyph glyph-name="shouqi" unicode="&#58964;" d="M939.55413333 597.8112H84.44586667a50.31253333 50.31253333 0 0 0 0 100.5568h855.10826666a50.31253333 50.31253333 0 0 0 0-100.5568zM572.34773333 326.38293333H572.07466667l-487.90186667 2.59413334a50.31253333 50.31253333 0 0 0 0.27306667 100.62506666h0.27306666l487.90186667-2.6624a50.31253333 50.31253333 0 0 0-0.27306667-100.5568zM889.2416 69.63199999999995H84.3776a50.31253333 50.31253333 0 0 0 0 100.5568h804.864a50.31253333 50.31253333 0 0 0 0-100.5568z"  horiz-adv-x="1024" />

    
    <glyph glyph-name="biangenglishi" unicode="&#58881;" d="M822.767484 895.801806c73.959226 0 134.44129-60.71329 134.639484-134.903741v-150.296775a429.419355 429.419355 0 0 1-167.671742 33.891097 433.052903 433.052903 0 0 1-104.282839-12.717419 42.215226 42.215226 0 0 1-37.062193 22.131613H174.013935c-23.25471 0-42.28129-19.059613-42.28129-42.380387s19.026581-42.380387 42.28129-42.380388h372.405678a434.109935 434.109935 0 0 1-142.137807-162.485677H174.212129c-23.25471 0-42.28129-19.059613-42.28129-42.380387s19.026581-42.413419 42.28129-42.413419h197.797161a432.359226 432.359226 0 0 1-14.402064-110.988388c0-15.822452 0.792774-31.44671 2.510451-46.839741H174.013935c-23.25471 0-42.28129-19.092645-42.28129-42.41342 0-23.320774 19.026581-42.380387 42.28129-42.380387h203.776a433.614452 433.614452 0 0 1 106.958452-175.764645H134.44129C60.515097-96.520258 0-35.84 0 38.383484V760.898065C0 835.088516 60.515097 895.801806 134.44129 895.801806h688.326194z m-36.665807-348.060903c185.509161 0 335.706839-150.891355 335.706839-336.862968 0-185.971613-150.362839-336.929032-335.706839-336.929032-185.310968 0-335.739871 150.957419-335.739871 336.929032 0 185.971613 150.197677 336.862968 335.739871 336.862968z m168.993033-412.804129c20.579097 0 37.458581 16.945548 37.45858 37.59071 0 20.810323-16.714323 37.557677-37.45858 37.557677h-162.287484v163.047226a37.425548 37.425548 0 1 1-74.884129 0v-200.604903c0-10.041806 3.831742-19.489032 10.735484-26.425807l0.198193-0.198193c0.198194-0.363355 0.594581-0.561548 0.990968-0.957936 6.903742-6.342194 15.921548-10.008774 25.335742-10.008774h199.911226z"  horiz-adv-x="1123" />

    
    <glyph glyph-name="renyuan" unicode="&#58880;" d="M112.405-19.148000000000025c1.398 1.148 0.974 2.742 0.981 4.193 0.091 19.607 2.37 39.01 4.817 58.439a492.242 492.242 0 0 0 22.583 97.736c10.072 29.506 23.08 57.762 39.624 84.297 12.594 20.207 26.764 39.166 42.7 56.91 18.542 20.652 39.234 38.713 61.852 54.693 23.771 16.789 49.368 30.135 76.311 41.035 3.213 1.305 4.814 0.65 6.482-2.121a56592.184 56592.184 0 0 1 70.085-116.141c23.756-39.254 47.582-78.463 71.399-117.674 2.976-4.898 3.101-4.9 6.34 0.049 26.588 40.627 53.17 81.258 79.709 121.912 14.724 22.557 29.36 45.172 44.049 67.756 8.248 12.682 16.561 25.322 24.744 38.051 1.348 2.098 2.28 2.957 5.025 1.734 22.877-10.178 44.664-22.275 65.281-36.477 23.533-16.205 44.771-35.133 64.004-56.158 22.169-24.242 40.724-51.131 56.317-80.105 22.57-41.943 37.306-86.564 46.461-133.156 3.802-19.342 6.656-38.809 8.116-58.502 0.785-10.592 2.063-21.141 1.881-31.787-0.021-1.305-0.266-2.713 0.986-3.693v-23.023c-1.537-1.643-3.578-2.387-5.605-3.172-44.224-17.139-89.314-31.58-135.339-43.012-46.829-11.635-94.182-20.451-142.213-25.457-23.044-2.402-46.088-4.191-69.286-4.58-26.849-0.449-53.692-0.51-80.529-0.234-50.292 0.516-100.062 6.732-149.523 15.451-48.021 8.465-95.292 20.092-141.882 34.49-23.429 7.242-46.681 15-69.687 23.49-2.026 0.746-4.135 1.363-5.683 3.023v32.033zM522.788 895.706c4.312-2.122 9.087-1.257 13.595-1.801 19.943-2.4 39.065-7.69 57.547-15.313 16.201-6.681 31.368-15.249 45.561-25.622 15.774-11.528 29.946-24.595 42.452-39.655 18.617-22.417 32.556-47.337 41.554-74.979a214.564 214.564 0 0 0 9.699-47.136c1.093-12.01 1.25-24.008 0.595-35.911-1.373-24.855-7.504-48.745-17.202-71.717-8.403-19.91-19.497-38.217-33.146-54.874-12.258-14.958-26.122-28.398-41.754-39.872-19.585-14.376-40.912-25.527-64.023-33.039-14.842-4.821-30.021-8.092-45.639-9.638-31.619-3.13-62.536-0.242-92.657 9.845-28.871 9.67-54.637 24.717-77.743 44.673-22.879 19.763-40.844 43.234-54.501 69.956-11.331 22.171-18.44 45.771-21.722 70.583-1.822 13.769-2.454 27.546-1.684 41.289 1.411 25.182 7.101 49.521 16.774 72.881 9.371 22.633 22.191 43.239 38.271 61.567 11.501 13.11 24.167 25.242 38.454 35.491 24.884 17.852 52.077 30.646 81.968 37.528 10.661 2.455 21.396 4.502 32.387 4.74 1.165 0.025 2.365-0.092 3.192 0.998 9.34 0.006 18.681 0.006 28.022 0.006z"  horiz-adv-x="1024" />

    
    <glyph glyph-name="user" unicode="&#58948;" d="M709.010286 537.9108570000001c8.466286 23.021714 13.257143 48.438857 13.257143 75.209143 0 44.726857-13.165714 85.76-35.072 117.979429C655.542857 790.198857 589.092571 831.030857 512 831.030857c-76.982857 0-143.341714-40.685714-175.067429-99.638857-21.997714-32.274286-35.236571-73.417143-35.236571-118.272 0-26.770286 4.772571-52.169143 13.238857-75.209143a36.352 36.352 0 0 1-23.917714-34.505143c0-20.187429 15.689143-36.571429 35.053714-36.571428 0.256 0 0.493714 0.073143 0.749714 0.073143C344.32 352.12800000000004 420.571429 265.70971399999996 512 265.70971399999996c91.428571 0 167.661714 86.418286 185.142857 201.197715 0.256 0 0.475429-0.073143 0.731429-0.073143 19.364571 0 35.072 16.384 35.072 36.571428 0 16.109714-10.057143 29.622857-23.936 34.505143zM640.475429 214.63771399999996c-9.984-18.102857-63.616-32-128.475429-32-64.859429 0-118.473143 13.897143-128.457143 32 0 0-179.876571-10.294857-336.164571-182.564571-0.566857-0.603429-0.420571-3.328-0.420572-3.328v-73.508572a18.285714 18.285714 0 0 1 18.304-18.285714h893.513143a18.285714 18.285714 0 0 1 18.285714 18.285714v71.972572s-0.054857 3.675429-0.804571 4.571428c-118.857143 144-335.780571 182.857143-335.780571 182.857143z"  horiz-adv-x="1024" />

    
    <glyph glyph-name="xitongguanli" unicode="&#58976;" d="M838.144 255.488c-3.584 3.072-7.168 6.144-11.264 9.216-31.744 24.064-43.52 50.176-36.864 93.696 23.04 159.232-106.496 289.792-236.544 304.128-163.84 17.408-299.52-85.504-320.512-242.688-24.576-188.416 141.824-345.6 328.704-309.76 20.992 4.096 35.328-0.512 49.152-15.872 9.728-10.24 22.016-19.456 37.376-32.256-43.008-22.016-43.52-57.344-40.96-93.696 2.048-35.84-4.096-69.632-39.936-83.456-38.912-15.872-81.92-18.432-118.272 4.608-16.384 10.752-25.088 37.376-31.744 58.368-4.608 15.872-0.512 35.328-1.024 52.736-0.512 28.16-13.312 48.64-39.424 59.392-25.6 11.264-49.664 6.144-70.144-13.312-12.8-12.288-24.576-25.088-37.888-36.864-25.088-22.528-60.416-29.696-86.016-11.264-22.528 16.896-43.008 36.352-59.904 58.88-17.92 24.576-11.264 61.952 11.264 86.016 11.776 12.8 25.088 24.576 37.376 36.864 17.92 17.92 24.064 40.448 16.384 65.024-7.168 24.064-28.16 41.984-53.248 44.544-20.48 3.072-40.96 2.048-61.44 3.072-44.544 2.048-69.632 28.16-72.192 71.68-0.512 13.312-0.512 27.648 0 40.96C2.56 451.072 31.232 479.232 76.8 480.768c16.384 0.512 33.28-0.512 49.664 0.512 27.648 1.536 49.152 14.336 59.392 40.448 9.728 25.6 4.608 49.664-15.872 69.632-11.264 10.752-22.016 22.016-32.768 33.28-5.12 4.608-9.216 10.24-12.8 15.872-24.064 39.936-9.728 79.36 44.544 123.904 31.744 25.6 69.632 24.576 100.864-3.584 12.8-11.776 25.088-24.576 37.888-36.864 20.48-18.432 45.056-23.552 71.168-12.288 24.064 10.752 37.888 29.696 37.376 57.344 0 18.944 0 36.864 1.024 55.296 2.56 35.84 25.6 64 60.928 69.12 23.04 3.584 46.592 3.584 69.632 0 32.768-4.608 56.832-33.792 58.368-67.584 1.024-19.456-1.024-39.424 0.512-58.368 2.048-26.624 14.848-48.128 41.472-58.368 27.136-10.752 49.664-3.584 69.632 15.872 8.192 8.192 16.384 16.896 24.576 25.088 5.12 5.12 11.264 11.264 16.896 15.872 39.424 29.696 82.432 17.408 130.048-37.376 28.672-33.28 27.136-73.216-4.608-104.448-12.288-12.288-25.6-24.576-36.352-37.888-16.896-20.992-23.04-46.08-9.728-71.168 11.776-23.552 32.768-35.84 59.904-35.84 16.384 0 33.28 0.512 49.664 0 39.936-1.536 68.096-25.088 72.704-62.976 3.072-20.992 3.072-43.52 0-64.512-5.12-37.376-34.304-61.44-72.704-62.976-11.776-0.512-23.552-0.512-35.328 0-29.696 2.56-54.784-7.168-74.752-33.28zM313.856 436.224c24.064-25.088 48.128-50.688 72.704-75.776 47.104-47.104 108.032-48.64 153.6-4.096 47.104 45.568 45.568 105.984-3.072 154.112-25.088 24.576-51.712 47.616-74.752 75.264 63.488 18.432 120.832 8.704 171.52-27.648 81.408-56.832 112.128-152.576 78.336-245.76-6.656-17.408-1.024-26.624 9.728-37.376 60.928-59.392 121.344-118.784 181.76-178.688 34.304-34.304 32.768-75.264-3.584-107.008-28.672-25.088-65.024-24.064-94.208 4.608-60.928 59.392-121.344 119.296-181.248 179.712-13.824 13.824-24.576 17.408-45.056 10.752-80.384-26.624-153.088-10.752-214.016 47.104-56.832 54.272-73.728 122.88-60.416 198.656 3.072 2.56 5.632 4.096 8.704 6.144z m540.672-356.864c-20.48-2.56-33.792-12.8-35.84-34.304-1.536-19.456 16.384-37.376 36.352-37.376 19.968 0 35.84 15.872 35.84 35.84v1.536c-1.024 23.04-14.336 32.768-36.352 34.304z"  horiz-adv-x="1024" />

    
    <glyph glyph-name="dowm" unicode="&#58995;" d="M328.20792303 549.93784306l368.49388885 0c20.39307156 0 36.88727925-16.36607601 36.88727925-36.75731713 0-9.48357452-3.63710917-18.05558369-9.48357452-24.55002924l-182.23253143-243.15182184c-12.21094878-16.1043213-35.19960203-19.48333666-51.43754636-7.27421833-2.85916684 2.07939407-5.32478639 4.54684407-7.27421833 7.27421832L298.85295591 491.22790881c-12.0791562 16.10615175-8.83010297 39.22476712 7.40418045 51.30575379C312.8833745 547.6003551900001 320.54564876 549.93784306 328.20792303 549.93784306L328.20792303 549.93784306z"  horiz-adv-x="1024" />

    
    <glyph glyph-name="mima" unicode="&#58944;" d="M817.4-61.5H207.2c-19.1 0-34.5 15.5-34.5 34.5V410.6c0 19.1 15.5 34.5 34.5 34.5h24.2V521c-0.7 8.4-1.2 16.8-1.2 25.4 0 155.8 126.3 282.1 282.1 282.1s282.1-126.3 282.1-282.1v-101.3h23c19.1 0 34.5-15.5 34.5-34.5v-437.5c0.1-19.1-15.4-34.6-34.5-34.6zM495.1 165.1v-79.2h34.5v79.2c33 7.8 57.6 37.4 57.6 72.8 0 41.3-33.5 74.8-74.8 74.8s-74.8-33.5-74.8-74.8c-0.1-35.4 24.5-65 57.5-72.8z m224.5 379v2.3c0 114.5-92.8 207.2-207.2 207.2s-207.2-92.8-207.2-207.2v-101.3h414.5v99z"  horiz-adv-x="1024" />

    
    <glyph glyph-name="baobiao" unicode="&#58980;" d="M952.32 797.184c0 23.552-9.216 46.08-26.112 62.464-16.896 16.896-38.912 26.112-62.464 26.112H160.768c-49.152 0-89.088-39.936-89.088-89.088v-835.584c0-6.144 1.536-11.264 4.096-16.384 11.264-36.352 45.056-62.464 84.992-62.464h702.976c46.592 0 84.992 35.84 88.576 80.896 0.512 2.56 0.512 4.608 0.512 7.168l-0.512 826.88z m-745.984-62.976h417.792c18.432 0 32.768-14.848 32.768-32.768 0-18.432-14.848-32.768-32.768-32.768H206.336c-17.92 0-32.768 14.848-32.768 32.768-0.512 17.92 14.336 32.768 32.768 32.768z m350.72-172.544c0-18.944-15.36-33.792-33.792-33.792H214.016c-18.944 0-33.792 15.36-33.792 33.792 0 18.944 15.36 33.792 33.792 33.792h309.248c18.432 0 33.792-15.36 33.792-33.792zM207.872 455.68h223.232c18.944 0 33.792-15.36 33.792-33.792 0-18.944-15.36-33.792-33.792-33.792H207.872c-18.944 0-33.792 15.36-33.792 33.792-0.512 18.944 14.848 33.792 33.792 33.792z m158.72-209.408H219.648c-19.968 0-36.352 16.384-36.352 36.352s16.384 36.352 36.352 36.352h146.944c19.968 0 36.352-16.384 36.352-36.352s-16.384-36.352-36.352-36.352z m413.184 64.512L535.552 66.56c-1.536-1.536-3.584-2.56-6.144-3.072l-81.92-26.112c-10.752-3.584-20.48 6.656-17.408 17.408l26.112 81.92c0.512 2.048 1.536 3.584 3.072 5.632L703.488 386.56c5.632 5.632 13.824 5.632 19.456 0l56.832-55.808c5.12-5.632 5.12-14.336 0-19.968z m56.32 56.832L824.32 355.84c-6.144-5.632-14.336-5.632-19.968 0l-56.32 56.32c-5.632 6.144-5.632 14.336 0 19.968l22.016 21.504c10.24 10.752 27.648 10.752 37.888 0l28.16-28.16c15.872-16.384 15.872-41.472 0-57.856z"  horiz-adv-x="1024" />

    
    <glyph glyph-name="hesuanguanli" unicode="&#58962;" d="M868.465 472.757c-52.015 45.296-91.353 92.74-112.356 120.23-42.963-18.88-93.044-29.867-145.694-29.867h-0.678c-52.631 0-102.697 10.987-148.027 30.795-18.672-28.415-57.973-75.86-109.993-121.156-91.47-79.833-165.595-178.215-137.694-331.247C238.733 5.84 367.038-127.045 610.114-128c243.081 0.985 371.396 133.84 396.107 269.512 27.84 153.03-46.291 251.413-137.755 331.247zM733.723 140.143v0.02c15.122 0 27.375-12.283 27.375-27.482 0-15.189-12.253-27.482-27.375-27.482h-92.159v-30.77c0-15.179-12.258-27.483-27.37-27.483-15.123 0-27.37 12.305-27.37 27.483v30.77H494.65c-15.113 0-27.37 12.293-27.37 27.482 0 15.199 12.258 27.482 27.37 27.482h92.174V203.45H494.65c-15.113 0-27.37 12.294-27.37 27.493 0 15.179 12.258 27.483 27.37 27.483h92.174v27.87l-90.709 91.081c-4.96 4.979-8.026 11.847-8.026 19.43s3.067 14.453 8.027 19.433a27.241 27.241 0 0 0 19.36 8.04 27.241 27.241 0 0 0 19.36-8.04l79.359-79.708 79.359 79.707c4.947 4.967 11.791 8.04 19.354 8.04s14.407-3.073 19.354-8.04c4.96-4.98 8.027-11.847 8.027-19.432a27.447 27.447 0 0 0-8.027-19.433l-90.668-91.08v-27.901h92.159c15.122 0 27.37-12.305 27.37-27.483 0-15.198-12.247-27.493-27.37-27.493h-92.159v-63.282h92.129zM374.976 760.87c21.565-15.189 37.745-30.77 49.493-47.716 8.93-12.763 32.649-46.69 36.08-73.242l1.602-12.503a2.565 2.565 0 0 1 1.593-2.048l11.55-4.916c42.757-18.221 88.12-27.457 134.814-27.457 46.7 0 92.061 9.236 134.821 27.452l11.605 4.947a2.574 2.574 0 0 1 1.54 2.098l1.6 12.428c3.43 26.543 27.17 60.51 36.157 73.36 11.701 16.863 27.922 32.465 49.59 47.72 18.834 13.515 30.872 34.498 31.408 54.75 0.44 16.66-6.713 31.766-20.141 42.534-8.154 6.576-18.983 9.905-32.19 9.905-11.008 0-23.51-2.226-38.235-6.796-10.084-3.13-18.43-4.963-23.566-5.167-6.908 1.465-10.221 3.952-19.396 11.365-6.11 4.937-13.723 11.079-24.66 17.955C707.794 892.26 693.586 895.96 678.616 895.96c-21.851 0-42.35-7.735-53.47-20.171-4.043-4.452-10.159-9.165-15.04-12.631-4.855 3.44-10.926 8.118-14.897 12.483C583.96 888.2 563.45 896 541.692 896c-14.97 0-29.254-3.737-40.262-10.538-10.802-6.79-18.405-12.931-24.521-17.87-9.21-7.443-12.585-9.914-20.984-11.48-5.182 0.076-13.683 2.71-21.98 5.288-14.688 4.564-27.197 6.785-38.24 6.785-13.202 0-24.02-3.32-32.149-9.865-13.452-10.783-20.614-25.894-20.176-42.549 0.55-20.268 12.647-41.297 31.598-54.904z"  horiz-adv-x="1024" />

    
    <glyph glyph-name="fenpeiyonghu" unicode="&#59240;" d="M501.996308 373.76c145.880615 0 264.664615 117.208615 264.664615 261.198769C766.582154 778.870154 647.798154 896 501.917538 896c-145.880615 0-264.664615-117.129846-264.664615-261.041231 0-143.990154 118.784-261.12 264.664615-261.12m109.016616-25.206154H412.672C228.509538 348.711385 78.690462 201.019077 78.690462 19.298462v-19.53477c0-94.995692 147.456-94.995692 334.060307-94.995692h198.262154c179.357538 0 334.139077 0 334.139077 94.995692v19.53477c0 181.641846-149.897846 329.491692-334.139077 329.491692"  horiz-adv-x="1024" />

    
    <glyph glyph-name="quanxian" unicode="&#59032;" d="M608.711111 184.888889h34.133333v56.888889c0 170.666667 125.155556 153.6 130.844445 153.6 136.533333 0 125.155556-147.911111 125.155555-153.6v-56.888889h39.822223c17.066667 0 28.444444-11.377778 28.444444-22.755556v-204.8c0-17.066667-11.377778-28.444444-28.444444-28.444444h-329.955556c-17.066667 0-28.444444 11.377778-28.444444 22.755555V156.444444c0 17.066667 11.377778 28.444444 28.444444 28.444445z m244.622222 56.888889s5.688889 102.4-79.644444 102.4c-5.688889 0-79.644444 5.688889-79.644445-102.4v-56.888889H853.333333v56.888889zM56.888889-2.844444c5.688889-34.133333 39.822222-68.266667 79.644444-68.266667h329.955556c22.755556 0 39.822222 17.066667 39.822222 39.822222v199.111111c0 193.422222 51.2 261.688889 164.977778 301.511111 34.133333 11.377778 51.2 45.511111 45.511111 79.644445 5.688889 22.755556-11.377778 45.511111-34.133333 45.511111h-5.688889l-11.377778 79.644444C648.533333 770.844444 563.2 839.111111 460.8 839.111111h-11.377778c-96.711111-5.688889-176.355556-73.955556-199.111111-164.977778l-11.377778-79.644444c-22.755556 0-39.822222-17.066667-39.822222-39.822222v-5.688889c-5.688889-34.133333 17.066667-73.955556 45.511111-91.022222 34.133333-22.755556 22.755556-79.644444 73.955556-130.844445 28.444444-17.066667 45.511111-51.2 45.511111-79.644444 0-22.755556-17.066667-51.2-39.822222-56.888889-73.955556-22.755556-147.911111-56.888889-216.177778-91.022222-34.133333-17.066667-56.888889-56.888889-51.2-102.4z"  horiz-adv-x="1024" />

    
    <glyph glyph-name="tongbu" unicode="&#58951;" d="M558.019256 67.425953c-101.458047-33.819349-219.825768-8.454837-295.919302 67.638698-76.093535 76.093535-101.458047 194.461256-67.638698 295.919302 8.454837 42.274186-16.909674 93.003209-59.183861 101.458047-42.274186 16.909674-93.003209-8.454837-109.912883-50.729024-50.729023-169.096744-8.454837-346.648326 109.912883-473.470884 126.822558-126.822558 304.37414-169.096744 473.470885-109.912883 42.274186 16.909674 67.638698 67.638698 50.729023 109.912883-8.454837 42.274186-59.183861 67.638698-101.458047 59.183861zM456.56121 701.538744c109.912884 33.819349 219.825768 8.454837 295.919302-67.638698 84.548372-76.093535 109.912884-194.461256 76.093535-295.919302-8.454837-33.819349-8.454837-67.638698 16.909675-93.00321 16.909674-25.364512 50.729023-33.819349 84.548372-25.364511 33.819349 8.454837 59.183861 33.819349 67.638697 59.18386 50.729023 169.096744 8.454837 346.648326-109.912883 465.016047C760.935349 870.635488 583.383768 912.909674 414.287024 853.725814c-50.729023 0-67.638698-50.729023-59.183861-93.003209 16.909674-42.274186 59.183861-67.638698 101.458047-59.183861zM304.37414 464.803302c33.819349-33.819349 93.003209-33.819349 126.822558 0 33.819349 33.819349 33.819349 84.548372 0 118.367721L143.732233 870.635488C109.912884 904.454837 50.729023 904.454837 16.909674 870.635488c-33.819349-33.819349-33.819349-84.548372 0-118.367721l287.464466-287.464465z m693.296651-439.651535L710.206326 304.161395c-33.819349 33.819349-84.548372 33.819349-118.367721 0-33.819349-33.819349-33.819349-84.548372 0-118.367721l279.009628-279.009628c33.819349-25.364512 84.548372-25.364512 118.367721 8.454837 33.819349 25.364512 33.819349 76.093535 8.454837 109.912884z m0 0"  horiz-adv-x="1028" />

    
    <glyph glyph-name="Relationshipmainten" unicode="&#58925;" d="M861.866667 189.866667c-27.733333 0-51.2-6.4-74.666667-19.2l-57.6 57.6c23.466667 34.133333 36.266667 76.8 36.266667 121.6 0 66.133333-27.733333 123.733333-74.666667 164.266666l27.733333 61.866667h14.933334c87.466667 0 157.866667 70.4 157.866666 157.866667S821.333333 891.733333 733.866667 891.733333s-157.866667-70.4-157.866667-157.866666c0-51.2 25.6-98.133333 64-125.866667l-21.333333-49.066667c-23.466667 8.533333-46.933333 12.8-74.666667 12.8-121.6 0-221.866667-100.266667-221.866667-221.866666 0-27.733333 4.266667-53.333333 14.933334-76.8l-51.2-23.466667c-27.733333 38.4-74.666667 66.133333-128 66.133333-87.466667 0-157.866667-70.4-157.866667-157.866666S70.4 0 157.866667 0s157.866667 70.4 157.866666 157.866667V170.666667l66.133334 29.866666c40.533333-44.8 98.133333-72.533333 162.133333-72.533333 46.933333 0 89.6 14.933333 125.866667 38.4l57.6-57.6c-12.8-23.466667-21.333333-51.2-21.333334-78.933333 0-87.466667 70.4-157.866667 157.866667-157.866667s157.866667 70.4 157.866667 157.866667-72.533333 160-160 160z m-128 616.533333c40.533333 0 72.533333-32 72.533333-72.533333S774.4 661.333333 733.866667 661.333333s-72.533333 32-72.533334 72.533334 34.133333 72.533333 72.533334 72.533333z m-576-718.933333c-40.533333 0-72.533333 32-72.533334 72.533333s32 72.533333 72.533334 72.533333 72.533333-32 72.533333-72.533333-32-72.533333-72.533333-72.533333z m386.133333 128c-74.666667 0-136.533333 61.866667-136.533333 136.533333 0 74.666667 61.866667 136.533333 136.533333 136.533333s136.533333-61.866667 136.533333-136.533333c0-74.666667-59.733333-136.533333-136.533333-136.533333z m317.866667-253.866667c-40.533333 0-72.533333 32-72.533334 72.533333s32 72.533333 72.533334 72.533334 72.533333-32 72.533333-72.533334-32-72.533333-72.533333-72.533333z"  horiz-adv-x="1026" />

    
    <glyph glyph-name="hesuanweidu" unicode="&#59037;" d="M278.9376 726.528L490.752 844.8l206.848-118.272-206.848-118.1696L278.9376 726.528z m438.9376-240.4352l-177.4592 102.6048 195.3792 108.8L921.6 600.576v-191.3856l-203.7248-113.5104V486.0928zM306.176-24.2176v234.9056l180.224-101.9904 178.8416 101.9904v-234.9056l-179.5584-103.5776-179.5072 103.5776z m411.6992 259.584L921.6 347.4944v-231.0656l-203.7248-124.672v243.6096zM306.176 454.144l184.576 102.0416 174.4896-102.0416v-191.3856L486.4 169.216l-180.224 93.5936V454.144zM51.2 117.1456v230.3488l212.8896-112.128v-236.9024L51.2 117.1456z m3.584 483.4304l176.896 96.9216 197.632-108.8L254.464 486.0928v-190.464L51.2 409.2416l3.584 191.3856z"  horiz-adv-x="1024" />

    
    <glyph glyph-name="wenjianjia" unicode="&#58938;" d="M102.286 470.357v6.258h818.518v-386.844c0-26.283-22.528-47.673-50.176-47.673H152.462c-27.648 0-50.176 21.504-50.176 47.673V470.357zM870.741 634.425c27.648 0 50.176-21.39 50.176-47.673v-58.14h-818.63v116.28c0 33.679 27.989 60.985 62.35 60.985H458.98c34.247 0 62.35-27.306 62.35-60.985v-10.467H870.74z"  horiz-adv-x="1024" />

    
    <glyph glyph-name="daochu" unicode="&#58929;" d="M1114.414679 201.711514c9.573921-9.369132 14.335283-29.028949 10.751463-43.620219l-66.454278-259.673416c-3.788611-14.59127-16.741563-26.417879-28.926553-26.417879H97.633518c-12.184991 0-25.137943 11.929004-28.926553 26.417879L1.279936 158.19369c-3.737413 14.59127 1.023949 34.097495 10.59787 43.517824l169.156342 164.497376c9.522724 9.420329 27.39063 17.099945 39.422029 17.099945h99.783811L158.20009 178.877456h162.500675l79.20244-148.011799h325.718114l82.786261 147.858207h162.449477l-162.961452 204.482576h97.991901c12.184991 0 29.899305-7.679616 39.422029-17.099945l169.053947-164.343783zM281.9955 574.940853l269.81051 314.761862a16.895155 16.895155 0 0 0 12.79936 6.297285c4.863757 0 9.420329-2.40628 12.79936-6.297285l269.810509-314.761862c1.843108-2.150292 2.457477-5.529324 1.587121-8.703565-1.023949-3.123044-3.379031-5.017349-5.785311-5.017349h-174.583271l0.40958-256.80636a27.288236 27.288236 0 0 0-5.529324-16.690365 16.99755 16.99755 0 0 0-13.311334-6.962852H479.20804a16.99755 16.99755 0 0 0-13.311335 6.962852 27.288236 27.288236 0 0 0-5.580521 16.690365L460.776961 561.168742H286.296085c-2.559872 0-4.914954 1.894305-5.785311 5.017349a9.113144 9.113144 0 0 0 1.484726 8.703565z"  horiz-adv-x="1126" />

    
    <glyph glyph-name="xinjian" unicode="&#58940;" d="M1001.6 438.266667a76.572 76.572 0 0 1-54.266667 22.4h-358.666666v358.666666a76.666667 76.666667 0 0 1-153.333334 0v-358.666666h-358.666666a76.666667 76.666667 0 0 1 0-153.333334h358.666666v-358.666666a76.666667 76.666667 0 0 1 153.333334 0v358.666666h358.666666A76.592 76.592 0 0 1 1024 384a77.369333 77.369333 0 0 1-22.4 54.266667z"  horiz-adv-x="1024" />

    
    <glyph glyph-name="xiala1-copy" unicode="&#58882;" d="M560.42876573 118.74325824000005c-14.01356371-14.01356371-33.0319716-27.0261586-51.04941067-23.02228327-18.01743904-3.00290651-35.03390928 11.01065722-49.04747302 23.02228327L26.91237567 554.1647022899999c-22.02131441 22.02131441-22.02131441 58.05619254 0 80.07750691s58.05619254 22.02131441 80.07750694 0l403.39044131-414.40109847L914.77173399 634.2422091999999c22.02131441 22.02131441 58.05619254 22.02131441 80.07750693 0s22.02131441-58.05619254 0-80.07750691l-434.42047519-435.42144405z"  horiz-adv-x="1024" />

    
    <glyph glyph-name="tingyong" unicode="&#60101;" d="M512-128C229.223489-128 0 101.223489 0 384S229.223489 896 512 896 1024 666.776511 1024 384 794.776511-128 512-128zM144.100766 674.859574L802.859574 16.100766a565.553021 565.553021 0 0 1 77.03966 77.03966L221.140426 751.899234a565.553021 565.553021 0 0 1-77.03966-77.03966z"  horiz-adv-x="1024" />

    
    <glyph glyph-name="wenjianjia1" unicode="&#59362;" d="M861.9 52.5c0-31.1-25.2-56.2-56.2-56.2H103.5l98.3 454.2c0 31 25 56.2 56.1 56.2h646.2c31 0 56.1-25.2 56.1-56.2l-98.3-398zM215.8 548.9h632v55.2c0 31-25.2 56.2-56.2 56.2h-337v50.9c0 31-25.2 56.2-56.2 56.2H117.6c-31 0-56.2-25.2-56.2-56.2v-658.6l98.2 440.2c0 30.9 25.2 56.1 56.2 56.1z m0 0"  horiz-adv-x="1024" />

    
    <glyph glyph-name="tongzhi1" unicode="&#58888;" d="M48 571.2S44.8 592 68.8 592H224S387.2 768 545.6 827.2h57.6v-828.8H544s-180.8 68.8-320 236.8H65.6S48 235.2 48 256V571.2zM700.8 686.4l139.2 121.6s86.4 14.4 75.2-60.8c-54.4-60.8-140.8-139.2-140.8-139.2s-102.4-25.6-73.6 78.4zM769.6 227.2l137.6-137.6s20.8-89.6-57.6-83.2c-67.2 52.8-156.8 137.6-156.8 137.6s-33.6 104 76.8 83.2zM739.2 432s-9.6 40 38.4 40h176s41.6 9.6 41.6-40-8-57.6-40-57.6H760s-27.2-9.6-20.8 57.6z"  horiz-adv-x="1024" />

    
    <glyph glyph-name="noun_filesandfolde" unicode="&#58892;" d="M585.05568514 707.76815894h115.47511522l-176.74762534 185.93850189v-124.43032827c0-33.69988057 27.33696604-61.50817362 61.27251012-61.50817362zM393.46125926 238.79779300999996h-204.79158191c-10.36919402 0-18.85308003 8.48388603-18.85308002 18.85308006s8.48388603 18.85308003 18.85308002 18.85308003H405.9514248c12.01883853 30.63625506 28.04395655 56.55924012 47.83969058 82.48222515H188.66967735c-10.36919402 0-18.85308003 8.48388603-18.85308002 18.85308005s8.48388603 18.85308003 18.85308002 18.85308004h300.94229011c56.55924012 49.48933509 131.50023326 81.06824416 213.27546792 81.06824415 7.77689552 0 14.13981003-0.7069905 23.56635005-1.413981V670.06199888h-141.39810029c-54.67393211 0-98.9786702 44.7760651-98.9786702 99.21433368V922.22194438H124.56920523C77.90783214 922.22194438 40.67299907 884.04445731 40.67299907 837.1474207v-719.24500343c0-46.8970366 37.23483307-84.13186967 83.89620616-84.13186966h283.97451808c-16.26078154 37.70616007-25.21599454 80.12559015-25.21599456 124.43032825-0.23566351 27.80829306 3.5349525 54.67393211 10.13353051 80.59691715z m-204.79158191 275.72629555h238.727126c10.36919402 0 18.85308003-8.48388603 18.85308001-18.85308003s-8.48388603-18.85308003-18.85308001-18.85308003H188.66967735c-10.36919402 0-18.85308003 8.48388603-18.85308002 18.85308003s8.48388603 18.85308003 18.85308002 18.85308003zM702.65177187 439.34743192c-155.30224681 0-281.61788306-126.31563625-281.61788305-281.61788306S547.34952507-123.88833420000003 702.65177187-123.88833420000003s281.61788306 126.31563625 281.61788306 281.61788306-126.31563625 281.61788306-281.61788306 281.61788306z m-0.471327-261.35082201c56.79490361 0 102.74928621-46.19004608 102.74928622-102.74928621 0-50.90331611-36.99916958-93.08708268-85.54585068-101.33530521V-53.424947559999964c0-10.36919402-8.48388603-18.85308003-18.85308005-18.85308004s-18.85308003 8.48388603-18.85308002 18.85308004v28.04395656c-46.8970366 9.66220352-82.24656166 51.13897962-82.24656166 100.6283147 0 10.36919402 8.48388603 18.85308003 18.85308004 18.85308004s18.85308003-8.48388603 18.85308002-18.85308004c0-35.82085206 29.22227406-65.04312613 65.04312613-65.04312614s65.04312613 29.22227406 65.04312613 65.04312614-29.22227406 65.04312613-65.04312613 65.04312612c-56.79490361 0-102.74928621 46.19004608-102.74928619 102.7492862 0 49.7249986 35.34952507 91.20177469 82.24656166 100.62831472V363.69944827999996c0 10.36919402 8.48388603 18.85308003 18.85308002 18.85308004s18.85308003-8.48388603 18.85308005-18.85308004v-19.08874354c48.5466811-8.24822251 85.54585068-50.4319891 85.54585068-101.33530521 0-10.36919402-8.48388603-18.85308003-18.85308005-18.85308003s-18.85308003 8.48388603-18.85308004 18.85308003c0 34.40687107-26.86563906 62.68649111-60.80118312 65.04312613-1.885308-0.7069905-4.00627951-0.94265401-6.12725101-0.942654-1.885308 0-3.5349525 0.23566351-5.4202605 0.70699049-32.52156306-3.5349525-57.97322111-31.10758207-57.97322113-64.80746262 0.23566351-36.05651557 29.45793756-65.27878962 65.27878963-65.27878962z"  horiz-adv-x="1024" />

    
    <glyph glyph-name="zidingyibiaoti-" unicode="&#58923;" d="M661.64736 654.2336a63.36512 63.36512 0 0 0 5.67296-12.88192 77.35296 77.35296 0 0 0 3.44064-15.68768 46.24384 46.24384 0 0 0-1.24928-16.896 51.2 51.2 0 0 0-8.33536-17.08032c-4.48512-5.65248-8.51968-10.6496-12.10368-14.90944s-6.67648-8.06912-9.3184-11.38688a171.511808 171.511808 0 0 0-8.47872-9.99424L498.64704 660.48q6.81984 7.86432 16.15872 18.92352c6.144 7.39328 11.44832 13.23008 15.6672 17.6128a56.0128 56.0128 0 0 0 17.28512 11.9808 58.12224 58.12224 0 0 0 18.432 4.7104 70.16448 70.16448 0 0 0 18.10432-0.79872 90.95168 90.95168 0 0 0 15.60576-3.97312q14.17216-5.46816 32.37888-21.03296a143.17568 143.17568 0 0 0 29.34784-33.60768zM202.752 286.69952q3.35872 4.25984 15.68768 20.1728t30.84288 39.3216l40.96 51.75296 45.48608 57.4464 120.832 152.4736 132.68992-105.65632-120.832-152.4736-44.87168-57.344q-22.528-27.70944-40.48896-50.72896T353.32096 203.776q-11.79648-14.90944-14.11072-17.1008-5.67296-6.4512-13.2096-13.76256a80.4864 80.4864 0 0 0-15.9744-12.16512 282.50112 282.50112 0 0 0-24.80128-13.824q-16.384-8.33536-34.46784-16.54784T216.39168 115.712q-16.384-6.38976-24.43264-8.64256-16.91648-3.87072-23.47008 2.43712t-5.89824 23.1424a219.136 219.136 0 0 0 3.05152 26.43968q2.94912 18.08384 6.144 36.12672 3.29728 18.7392 6.61504 34.57024a144.65024 144.65024 0 0 0 5.81632 21.93408 106.78272 106.78272 0 0 0 6.71744 17.18272 104.448 104.448 0 0 0 11.81696 17.79712zM593.22368 465.92m39.2192 0l186.75712 0q39.2192 0 39.2192-39.2192l0 0.02048q0-39.2192-39.2192-39.2192l-186.75712 0q-39.2192 0-39.2192 39.2192l0-0.02048q0 39.2192 39.2192 39.2192ZM484.12672 329.37984m39.2192 0l295.85408 0q39.2192 0 39.2192-39.2192l0 0.02048q0-39.2192-39.2192-39.2192l-295.85408 0q-39.2192 0-39.2192 39.2192l0-0.02048q0 39.2192 39.2192 39.2192ZM367.14496 192.86016m39.2192 0l412.83584 0q39.2192 0 39.2192-39.2192l0 0.02048q0-39.2192-39.2192-39.2192l-412.83584 0q-39.2192 0-39.2192 39.2192l0-0.02048q0 39.2192 39.2192 39.2192Z"  horiz-adv-x="1024" />

    
    <glyph glyph-name="gongchang" unicode="&#59846;" d="M813.8 407.3l-57 26.6V639.1c0 9.8-5.1 18.9-13.4 24l-96.9 60.1c-6.7 4.1-15.3-0.7-15.3-8.5v-222.2L137.4 723.2c-10.8 5.1-23.3-2.9-23.3-14.8v-752.1c0-11.2 9.1-20.3 20.3-20.3h682.1c11.2 0 20.3 9.1 20.3 20.3V371c0.1 15.5-8.9 29.7-23 36.3z m-540-364.2H211v303h62.8v-303z m90.3 0h-62.8v303h62.8v-303z m90.4 0h-62.8v303h62.8v-303zM838.5 832c-39.4 0-71.4-20.3-71.4-45.4 0-25.1 32-45.4 71.4-45.4 39.4 0 71.4 20.3 71.4 45.4 0 25.1-32 45.4-71.4 45.4z m-77.9-131.5c29.2 0 52.8 14.9 53.4 33.3-26.8 5-48 17.9-57.1 34.6-27.8-1.2-49.9-15.8-49.9-33.9 0-18.7 24-34 53.6-34z"  horiz-adv-x="1024" />

    
    <glyph glyph-name="signOut" unicode="&#58916;" d="M511.46375094 352.75363312c-17.58185813 0-32.63715656 6.26530688-45.21745688 18.69373219a61.03119187 61.03119187 0 0 0-18.79498219 44.86401938V799.47664313c0 17.48154563 6.26530688 32.58746906 18.79498219 45.36933187A61.13244187 61.13244187 0 0 0 511.514375 863.99439375c18.23904469 0 33.64871812-6.36561937 46.17839344-19.14841875 12.58030031-12.78186281 18.79404469-27.88778625 18.79404469-45.36933188v-383.16525843c0-17.48060812-6.21374438-32.43559406-18.79404469-44.91558188-12.52967531-12.37686281-27.93934781-18.64216969-46.17839344-18.64216969m261.10287562 372.10089375a455.21112656 455.21112656 0 0 0 81.29054719-73.10617968c23.69529-27.23247375 43.95558281-56.63619563 60.93087938-88.21304063a440.81207812 440.81207812 0 0 0 51.83620031-207.70011375 432.22271156 432.22271156 0 0 0-36.07309031-175.97045719 459.65674781 459.65674781 0 0 0-97.50928219-143.18236218 463.95143063 463.95143063 0 0 0-144.34392375-96.80147063 441.92395219 441.92395219 0 0 0-177.23420625-35.82090281 439.70020406 439.70020406 0 0 0-176.32483125 35.82090281A469.45830094 469.45830094 0 0 0 190.3909325 36.68237343999999 448.89519563 448.89519563 0 0 0 92.83196375 179.86473563000004a438.18520594 438.18520594 0 0 0-35.56871625 175.87014468c0 35.66902875 4.24405875 70.57962 12.68155031 104.88552469a465.71955469 465.71955469 0 0 0 36.12371531 97.81209375 433.48645969 433.48645969 0 0 0 57.89994469 86.69710406 494.164215 494.164215 0 0 0 77.19836344 72.65149313 63.15369 63.15369 0 0 0 48.29995406 12.12561375c17.27810812-2.72812219 31.32372-11.11498969 42.18652219-25.26091313 10.81217719-14.09623687 14.85373594-29.85934687 12.12561375-47.339955a63.45650156 63.45650156 0 0 0-25.36310062-42.38902219 314.20188656 314.20188656 0 0 1-132.06549938-259.13131406c0-44.35964531 8.43655406-86.19273 25.36122656-125.499255a324.15437719 324.15437719 0 0 1 69.6205575-102.86427656 333.29968125 333.29968125 0 0 1 103.62271407-69.56993344c39.6093375-17.17779562 81.84742125-25.71560063 126.55956562-25.71560062 44.66245688 0 86.84991656 8.58749156 126.45925406 25.71560062a333.24905625 333.24905625 0 0 1 103.62177657 69.56993344 330.11593406 330.11593406 0 0 1 70.12587 102.86427656 308.54314219 308.54314219 0 0 1 25.91810062 125.499255 317.08094625 317.08094625 0 0 1-36.57840281 148.73892A315.71782312 315.71782312 0 0 1 698.44982187 619.96806469a60.52681687 60.52681687 0 0 0-26.92872468 41.32777312 63.25493906 63.25493906 0 0 0 52.34245031 74.11680375c17.63248313 3.03187219 33.85027969-0.50531156 48.75464063-10.55905219"  horiz-adv-x="1024" />

    
    <glyph glyph-name="wenjuantiaocha" unicode="&#58982;" d="M900.3614811 869.45185223H123.6385189c-32.03982222 0-58.25422222-26.2144-58.25422223-58.25422222v-854.39526002c0-32.03982222 26.2144-58.25422222 58.25422223-58.25422222h776.7229622c32.03982222 0 58.25422222 26.2144 58.25422223 58.25422222V811.19763001c0 32.03982222-26.2144 58.25422222-58.25422223 58.25422222z m-451.95567331-583.02767445l-150.97552669-150.97552555c-15.04900779-15.04900779-39.80705223-15.04900779-54.85605888 0l-68.44871111 68.44871111c-15.04900779 15.04900779-15.04900779 39.80705223 0 54.85605888 15.04900779 15.04900779 39.80705223 15.04900779 54.85605888 0l41.26340779-41.26340779 123.79022222 123.79022223c15.04900779 15.04900779 39.80705223 15.04900779 54.85605888 0 14.56355555-15.04900779 14.56355555-39.80705223-0.48545109-54.85605888z m0 291.27111111l-150.97552669-150.97552555c-15.04900779-15.04900779-39.80705223-15.04900779-54.85605888 0L173.64005888 495.16847445c-15.04900779 15.04900779-15.04900779 39.80705223 0 54.85605888 15.04900779 15.04900779 39.80705223 15.04900779 54.85606002 0l41.26340665-41.26340778 123.79022222 123.79022222c15.04900779 15.04900779 39.80705223 15.04900779 54.85606002 0 15.04900779-15.04900779 15.04900779-39.80705223 0-54.85605888z m374.28337778-405.35229668h-233.0168889c-21.3598811 0-38.83614777 17.47626667-38.8361489 38.83614891s17.47626667 38.83614777 38.8361489 38.83614777h233.0168889c21.3598811 0 38.83614777-17.47626667 38.83614776-38.83614777s-17.47626667-38.83614777-38.83614776-38.83614891z m0 291.27111112h-233.0168889c-21.3598811 0-38.83614777 17.47626667-38.8361489 38.8361489s17.47626667 38.83614777 38.8361489 38.83614777h233.0168889c21.3598811 0 38.83614777-17.47626667 38.83614776-38.83614777s-17.47626667-38.83614777-38.83614776-38.8361489z"  horiz-adv-x="1024" />

    
    <glyph glyph-name="chakan1" unicode="&#59063;" d="M678.430118 135.107765c26.624 0 47.585882-20.901647 47.585882-47.585883 0-26.563765-20.961882-47.525647-47.585882-47.525647a47.104 47.104 0 0 0-47.585883 47.585883c0 26.624 20.961882 47.585882 47.585883 47.585882z m0 142.697411c-129.807059 0-240.64-78.908235-285.334589-190.223058 44.694588-111.254588 155.527529-190.223059 285.334589-190.223059 129.807059 0 240.64 78.908235 285.334588 190.223059-44.694588 111.254588-155.527529 190.223059-285.334588 190.223058z m0-309.127529a118.904471 118.904471 0 1 0 0 237.808941 118.904471 118.904471 0 0 0 0-237.808941z m-373.76 83.245177l-13.854118 35.659294 13.854118 35.177411C365.989647 274.974118 512 372.916706 678.430118 372.916706c49.995294 0 97.942588-9.999059 142.697411-26.624v264.432941L535.792941 896H155.346824C102.580706 896 60.235294 853.654588 60.235294 800.888471V40.056471c0-52.525176 42.586353-95.051294 95.11153-95.051295h214.016a439.476706 439.476706 0 0 0-64.692706 106.977883zM488.207059 824.681412l261.541647-261.541647H488.207059V824.681412z"  horiz-adv-x="1024" />

    
    <glyph glyph-name="shujuyuanguanli" unicode="&#58961;" d="M981.44 77.86666666999997c-1.06666667 1.06666667-2.66666667 2.13333333-4.8 3.2-7.89333333 3.2-14.29333333 8-19.52 14.82666666-4.69333333 6.93333333-7.36 15.36-7.36 24.32 0 9.49333333 2.66666667 17.38666667 8.96 25.28 6.4 7.89333333 13.22666667 12.58666667 21.65333333 15.78666667 2.02666667 0.96 4.16 2.56 6.29333334 5.22666667s2.66666667 5.76 2.13333333 10.56c-1.06666667 8-3.09333333 15.36-6.29333333 23.25333333-3.2 7.89333333-6.29333333 13.65333333-10.56 17.38666667-2.13333333 2.13333333-4.69333333 3.2-7.89333334 3.73333333-3.09333333 0.53333333-5.76 0-7.89333333-1.6-7.89333333-3.73333333-16.85333333-5.33333333-26.34666667-4.8-9.49333333 0.53333333-17.38666667 4.16-23.78666666 10.56s-10.02666667 14.29333333-11.62666667 22.72c-1.6 9.06666667-0.53333333 16.96 3.2 24.85333333 0.53333333 0.96 1.06666667 2.56 1.6 5.22666667 0.53333333 2.02666667 0.53333333 4.69333333-1.06666667 6.82666667-2.66666667 3.2-5.22666667 6.4-8.96 9.49333333s-7.89333333 5.22666667-12.16 7.36c-4.26666667 1.6-8.96 3.2-13.22666666 4.26666667s-8.42666667 1.6-12.16 1.6c-2.02666667 0-4.69333333-1.6-6.82666667-3.73333334-2.56-2.56-4.16-4.69333333-5.22666667-6.82666666-2.56-7.89333333-7.89333333-14.82666667-15.25333333-20.05333334s-15.78666667-7.89333333-25.28-7.89333333c-8.96 0-16.85333333 3.2-23.78666667 8.42666667s-11.62666667 11.62666667-14.82666666 18.98666666c-1.06666667 2.02666667-2.13333333 4.69333333-4.26666667 6.82666667-2.13333333 2.66666667-4.69333333 3.73333333-8.42666667 3.73333333-2.66666667 0-6.29333333-0.53333333-11.09333333-1.6s-9.49333333-2.13333333-14.29333333-4.26666666c-5.33333333-1.6-9.49333333-4.16-13.76-6.82666667-4.16-3.2-7.36-6.29333333-8.96-10.02666667-0.53333333-1.49333333-1.06666667-3.62666667-0.53333334-5.76 0.53333333-2.02666667 1.06666667-4.16 1.6-5.76s0.53333333-4.16 1.06666667-7.89333333 0.53333333-7.89333333 0-12.69333333c0-4.8-1.06666667-9.49333333-2.66666667-14.29333334-1.06666667-4.8-3.62666667-8.96-6.82666666-12.16-6.93333333-6.4-14.29333333-10.56-23.25333334-11.62666666s-17.38666667 0-25.28 3.2c-2.56 0.53333333-4.69333333 1.06666667-6.82666666 1.6-2.02666667 0.53333333-4.16 0-6.29333334-1.6-2.56-1.6-5.22666667-4.16-7.36-7.36-2.56-3.2-4.69333333-6.82666667-6.29333333-11.09333334s-3.2-8.42666667-4.26666667-12.69333333-1.6-7.89333333-1.6-11.62666667c0-3.2 1.06666667-6.29333333 2.66666667-9.49333333 1.49333333-3.09333333 3.09333333-5.22666667 5.76-5.76 7.89333333-3.09333333 15.36-8.32 21.65333333-15.25333333s9.49333333-15.36 9.49333334-24.85333334c0-9.06666667-3.09333333-17.49333333-9.49333334-24.85333333S627.41333333 82.13333333000003 619.52 78.93333332999998c-4.16-1.6-6.82666667-5.33333333-7.89333333-11.09333333-0.53333333-3.2 0-7.36 1.06666666-12.16 1.06666667-5.33333333 2.66666667-10.02666667 4.8-14.82666667 2.02666667-4.8 4.16-9.6 6.82666667-13.22666666s5.22666667-6.29333333 8.42666667-7.36c4.26666667-1.6 7.89333333-2.13333333 11.62666666-1.06666667 5.76 1.6 11.62666667 3.2 17.38666667 3.2 4.69333333 0 10.02666667-0.53333333 15.25333333-1.6 5.33333333-1.06666667 10.02666667-3.62666667 13.76-7.89333333 6.29333333-6.93333333 10.02666667-14.29333333 10.56-22.18666667s-0.53333333-14.82666667-3.73333333-21.12c-2.13333333-4.26666667-3.2-7.89333333-3.2-10.56 0-2.56 0.53333333-4.69333333 2.13333333-6.82666667 1.6-2.66666667 4.69333333-5.33333333 8.42666667-7.89333333s7.89333333-4.69333333 12.69333333-6.82666667c4.8-2.02666667 9.49333333-3.62666667 14.29333334-5.22666666s8.96-2.13333333 12.69333333-2.13333334c3.2 0 6.29333333 0.53333333 8.96 2.13333334 3.09333333 1.06666667 4.69333333 3.62666667 6.29333333 6.82666666 3.09333333 7.89333333 8.42666667 14.82666667 15.78666667 21.12 7.46666667 5.76 15.89333333 8.96 24.85333333 8.96 9.6 0 17.49333333-2.66666667 24.85333334-8.96 7.36-5.86666667 12.05333333-13.22666667 15.25333333-21.65333333h0.53333333c0.53333333-2.56 2.13333333-4.16 4.26666667-6.29333333 2.02666667-1.6 4.16-2.66666667 6.82666667-2.66666667 3.73333333 0 7.36 0.53333333 12.16 1.6s8.96 2.13333333 13.22666666 4.26666667c4.26666667 2.02666667 7.89333333 4.16 11.62666667 6.29333333 3.62666667 2.56 6.29333333 4.69333333 7.89333333 6.82666667 3.2 5.76 3.73333333 11.09333333 1.06666667 16.32-3.73333333 8-4.8 16.42666667-3.73333333 24.85333333 1.06666667 8.96 5.33333333 16.42666667 11.62666666 23.25333333 2.66666667 3.09333333 6.29333333 5.22666667 10.56 6.82666667s8.42666667 2.13333333 12.69333334 2.66666667c4.26666667 0 7.89333333 0 12.16-0.53333334 3.73333333-0.53333333 7.36-1.06666667 10.02666666-2.13333333s5.22666667-1.6 7.89333334-1.6c2.13333333 0 5.22666667 1.06666667 8.42666666 2.66666667s6.29333333 4.16 8.96 7.89333333c2.56 3.73333333 4.69333333 7.89333333 6.82666667 12.69333333 2.13333333 4.26666667 3.73333333 8.96 4.26666667 13.76 1.06666667 4.26666667 1.06666667 8.42666667 0.53333333 11.62666667-1.06666667 3.73333333-3.2 6.93333333-7.04 10.98666667z m-100.16 6.4c-4.69333333-10.56-11.09333333-20.05333333-18.98666667-27.94666667-7.89333333-7.89333333-17.38666667-14.18666667-27.94666666-18.98666667-10.56-4.69333333-22.18666667-6.82666667-34.34666667-6.82666666-12.05333333 0-23.68 2.13333333-34.34666667 6.82666666-10.56 4.69333333-20.05333333 11.09333333-27.94666666 18.98666667-7.89333333 7.89333333-14.18666667 17.38666667-18.98666667 27.94666667-4.69333333 10.56-6.82666667 22.18666667-6.82666667 34.34666666s2.02666667 23.78666667 6.82666667 34.34666667c4.69333333 10.56 11.09333333 20.05333333 18.98666667 27.94666667 7.89333333 7.89333333 17.38666667 14.18666667 27.94666666 18.98666666 10.56 4.69333333 22.18666667 6.82666667 34.34666667 6.82666667s23.78666667-2.02666667 34.34666667-6.82666667c10.56-4.69333333 20.05333333-11.09333333 27.94666666-18.98666666 7.89333333-7.89333333 14.18666667-17.38666667 18.98666667-27.94666667 4.69333333-10.56 6.82666667-22.18666667 6.82666667-34.34666667s-2.13333333-23.78666667-6.82666667-34.34666666zM495.04 390.93333333c-254.4 0-460.16 61.76-460.16 137.70666667v-165.65333333c-0.53333333-76.05333333 205.33333333-137.81333333 459.62666667-137.81333334 30.08 0 59.62666667 1.06666667 88.64 2.66666667 38.50666667 75.41333333 116.58666667 127.14666667 206.82666666 127.14666667 49.6 0 95.46666667-15.78666667 133.54666667-42.24 20.58666667 15.78666667 31.68 32.74666667 31.68 50.13333333V528.64c0-75.94666667-206.29333333-137.70666667-460.16-137.70666667zM494.50666667 473.81333333C748.90666667 473.81333333 954.66666667 535.46666667 954.66666667 611.52V721.81333333c0 75.94666667-206.29333333 137.70666667-460.16 137.70666667-254.4 0-460.16-61.76-460.16-137.70666667v-110.29333333c0-76.05333333 205.86666667-137.70666667 460.16-137.70666667zM558.93333333 144c-21.12-1.06666667-42.77333333-1.6-64.42666666-1.6-254.4 0-460.16 61.76-460.16 137.70666667v-165.65333334c0-75.94666667 206.29333333-137.70666667 460.16-137.70666666 38.50666667 0 75.94666667 1.6 111.36 4.26666666-30.08 39.46666667-48 88.53333333-48 141.86666667 0 6.82666667 0.53333333 14.29333333 1.06666666 21.12z"  horiz-adv-x="1024" />

    
    <glyph glyph-name="tingyong1" unicode="&#59309;" d="M512 0a384 384 0 1 1 0 768 384 384 0 0 1 0-768zM512-128A512 512 0 1 0 512 896a512 512 0 0 0 0-1024zM168.106667 637.44l90.453333 90.453333 597.333333-597.333333-90.453333-90.453333z"  horiz-adv-x="1024" />

    
    <glyph glyph-name="lishibaobiao" unicode="&#58973;" d="M102.654358-76.175863a46.895852 46.895852 0 0 1 51.350958-51.585437h715.865178a46.895852 46.895852 0 0 1 37.751161 13.365318 46.895852 46.895852 0 0 1 13.365318 37.98564V844.624187a45.488976 45.488976 0 0 1-12.89636 38.22012 44.551059 44.551059 0 0 1-38.220119 12.66188H154.005316A45.254497 45.254497 0 0 1 115.550717 882.609827 46.895852 46.895852 0 0 1 102.654358 854.472316v-7.268857a13.834276 13.834276 0 0 1 0-3.04823z m668.500368 312.326373l-193.445389-193.445389a98.481289 98.481289 0 0 0-36.109806-23.447926l-85.35045-31.6547a3.986147 3.986147 0 0 0-3.986147 0 5.158544 5.158544 0 0 0-1.172397 5.393023l32.123659 85.115971a99.419206 99.419206 0 0 0 23.447926 36.344286l193.679868 193.445388a25.792719 25.792719 0 0 0 18.054903 7.503337 26.261677 26.261677 0 0 0 18.054903-7.503337h-1.172397l36.109806-36.109806a26.730636 26.730636 0 0 0 7.503337-18.289382 25.792719 25.792719 0 0 0-7.737816-17.351465zM243.341914 523.856561a45.254497 45.254497 0 0 0 37.75116 13.365318h307.402309a46.895852 46.895852 0 0 0 37.98564-13.365318 46.895852 46.895852 0 0 0 13.365318-37.751161 46.895852 46.895852 0 0 0-13.365318-37.75116 46.895852 46.895852 0 0 0-37.98564-13.365318H281.796512a46.895852 46.895852 0 0 0-51.116478 51.116478A45.254497 45.254497 0 0 0 243.341914 523.856561z m527.109374-143.032348l18.054903 18.054903a51.139926 51.139926 0 1 0 72.454091-72.219612l-18.289382-18.054903a23.447926 23.447926 0 0 0-18.054903-7.503336 23.447926 23.447926 0 0 0-17.820424 7.503336l-36.344285 35.875327a25.558239 25.558239 0 0 0 0.703438 36.344285zM243.341914 729.025913a45.020018 45.020018 0 0 0 38.454598 12.66188h408.931828a45.254497 45.254497 0 0 0 51.350958-50.882 46.895852 46.895852 0 0 0-12.896359-38.454598 45.254497 45.254497 0 0 0-38.454599-12.896359H281.796512A46.895852 46.895852 0 0 0 243.341914 652.820153a46.895852 46.895852 0 0 0-13.365318 37.98564A44.551059 44.551059 0 0 0 243.341914 729.025913z m0-408.931828a46.895852 46.895852 0 0 0 38.454598 12.66188h204.700393a45.020018 45.020018 0 0 0 37.98564-12.896359 45.488976 45.488976 0 0 0 12.89636-38.22012 44.551059 44.551059 0 0 0-12.66188-38.220119 45.488976 45.488976 0 0 0-38.22012-12.896359H281.796512A46.895852 46.895852 0 0 0 243.341914 243.888326a45.488976 45.488976 0 0 0-13.365318 37.75116A45.020018 45.020018 0 0 0 243.341914 320.094085z"  horiz-adv-x="1024" />

    
    <glyph glyph-name="guketiaochawenjuanbiao" unicode="&#59057;" d="M677.09155555 748.3164444500001H299.12177778c-7.50933333 0-13.53955555 6.144-13.53955556 13.53955555v119.46666667c0 7.50933333 6.144 13.53955555 13.53955556 13.53955555H676.97777778c7.50933333 0 13.53955555-6.144 13.53955555-13.53955555v-119.35288889c0.11377778-7.50933333-6.03022222-13.65333333-13.42577778-13.65333333zM303.90044445 192.85333333000005c-36.40888889 0-65.99111111-29.58222222-65.99111112-65.99111111s29.58222222-65.99111111 65.99111112-65.99111111 65.99111111 29.58222222 65.9911111 65.99111111-29.46844445 65.99111111-65.9911111 65.99111111z m575.37422222 628.05333334h-164.97777778v-89.88444445c0-7.39555555-6.144-13.42577778-13.65333334-13.42577777h-425.52888888c-7.50933333 0-13.65333333 6.03022222-13.65333334 13.42577777v89.88444445h-164.97777778c-19.34222222 0-35.27111111-15.70133333-35.2711111-34.816V-90.45333332999996c0-19.11466667 15.92888889-34.816 35.2711111-34.816h782.79111112c19.34222222 0 35.27111111 15.70133333 35.27111111 34.816V786.09066667c0 19.11466667-15.81511111 34.816-35.27111111 34.816zM303.90044445 9.216000000000008c-64.96711111 0-117.64622222 52.67911111-117.64622223 117.64622222S238.93333333 244.50844444999996 303.90044445 244.50844444999996 421.54666667 191.82933333000005 421.54666667 126.86222222000004s-52.67911111-117.64622222-117.64622222-117.64622222z m126.29333333 512.34133333L302.87644445 394.24c-5.34755555-5.34755555-12.40177778-7.96444445-19.456-7.96444445-7.05422222 0-14.10844445 2.61688889-19.456 7.96444445l-90.79466667 90.79466667c-10.58133333 10.58133333-10.58133333 27.98933333 0 38.57066666 10.58133333 10.58133333 27.98933333 10.58133333 38.57066667 0l71.56622222-71.56622222 108.20266666 108.20266667c10.58133333 10.58133333 27.98933333 10.58133333 38.57066667 0 10.80888889-10.69511111 10.80888889-27.98933333 0.11377778-38.68444445zM797.58222222 66.10488888999998c0-15.01866667-12.288-27.30666667-27.30666667-27.30666667H539.30666667c-15.01866667 0-27.30666667 12.288-27.30666667 27.30666667s12.288 27.30666667 27.30666667 27.30666666h230.96888888c15.01866667 0 27.30666667-12.288 27.30666667-27.30666666z m0 114.91555556c0-15.01866667-12.288-27.30666667-27.30666667-27.30666667H539.30666667c-15.01866667 0-27.30666667 12.288-27.30666667 27.30666667s12.288 27.30666667 27.30666667 27.30666666h230.96888888c15.01866667 0 27.30666667-12.288 27.30666667-27.30666666z m0 238.93333333c0-15.01866667-12.288-27.30666667-27.30666667-27.30666667H539.30666667c-15.01866667 0-27.30666667 12.288-27.30666667 27.30666667s12.288 27.30666667 27.30666667 27.30666667h230.96888888c15.01866667 0 27.30666667-12.288 27.30666667-27.30666667z m0 118.32888889c0-15.01866667-12.288-27.30666667-27.30666667-27.30666667H539.30666667c-15.01866667 0-27.30666667 12.288-27.30666667 27.30666667s12.288 27.30666667 27.30666667 27.30666666h230.96888888c15.01866667 0 27.30666667-12.288 27.30666667-27.30666666z"  horiz-adv-x="1024" />

    
    <glyph glyph-name="baogaogongdan" unicode="&#58956;" d="M865.94294518 798.57588148H731.14510222c0.6432237-3.73797925 0.89808592-7.59732148 0.89808593-11.4566637 0-38.24146963-31.15387259-69.39534222-69.39534223-69.39534223H383.76789333c-38.24146963 0-69.39534222 31.16600889-69.39534222 69.39534223 0 3.87147852 0.38836148 7.73082075 0.89808592 11.4566637H180.48493037c-31.80923259 0-57.55031703-25.61972148-57.55031704-57.16195556v-800.69214814c0.12136297-31.67573333 25.8745837-57.16195555 57.55031704-57.0405926h685.33665185c31.7970963 0 57.55031703 25.61972148 57.55031703 57.16195557V741.28042667c0.12136297 31.80923259-25.61972148 57.29545482-57.42895407 57.29545481zM294.42048 427.2658963c0 15.58300445 12.48824889 28.1926163 28.07125333 28.19261629h172.65095112c15.58300445-0.25486222 28.05911703-13.01010963 28.05911703-28.58097777 0-15.83786667-12.23338667-28.58097778-28.05911703-28.58097779H322.49173333c-15.44950518 0-28.07125333 13.25283555-28.07125333 28.58097779v0.38836148z m315.05825185-143.30538667c15.83786667 0 28.58097778-12.74311111 28.58097778-28.58097778s-12.74311111-28.58097778-28.58097778-28.58097777H322.6130963c-15.44950518 0-28.05911703 13.26497185-28.05911705 28.58097777 0 15.58300445 12.48824889 28.32611555 28.05911705 28.58097778h286.86563555z m113.81418667-228.79345778H323.13495703c-15.83786667 0-28.58097778 13.26497185-28.58097778 28.58097778 0 15.83786667 13.13147259 28.58097778 28.58097778 28.58097778H723.41428148c15.83786667 0 28.58097778-13.25283555 28.58097777-28.58097778-0.12136297-15.70436741-13.25283555-28.58097778-28.70234073-28.58097778z m0 514.62750815H323.13495703c-15.83786667 0-28.58097778 13.25283555-28.58097778 28.58097778 0 15.83786667 13.13147259 28.58097778 28.58097778 28.58097777H723.41428148c15.83786667 0 28.58097778-13.25283555 28.58097777-28.58097777-0.12136297-15.7165037-13.25283555-28.58097778-28.70234073-28.58097778zM383.76789333 736.9113600000001h278.87995259c27.54939259 0 50.08649482 22.53710222 50.08649483 50.08649482 0 27.54939259-22.52496592 50.07435852-50.08649483 50.07435851h-22.40360295c0.12136297 0.91022222 0.12136297 1.80830815 0.12136295 2.57289482 0 32.06409482-52.40452741 57.93867852-117.16380444 57.93867852-64.75927703 0-117.16380445-25.8745837-117.16380445-57.93867852 0-0.89808592 0-1.80830815 0.12136297-2.57289482h-22.40360297c-27.54939259 0-50.07435852-22.53710222-50.07435851-50.07435851 0.0121363-27.42802963 22.54923852-50.08649482 50.08649481-50.08649482z"  horiz-adv-x="1024" />

    
    <glyph glyph-name="xiugai" unicode="&#59023;" d="M723.339 485.875l-146.443 142.79-312.97-312.636-54.548-199.535v-0.33l199.199 55.415z m-23.866 265.107l-78.44-78.311 146.912-142.259 76.114 76.05c39.952 39.885 39.952 104.632 0 144.518-39.884 39.886-104.701 39.886-144.586 0.002zM155.243 81.84h718.78v-94.737h-718.78z"  horiz-adv-x="1024" />

    


  </font>
</defs>
</svg>
